# xmcd
#
# Track frame offsets:
#	150
#	87023
#	136725
#	160253
#	217927
#	239254
#
# Disc length: 3436 seconds
#
# Revision: 1
# Processed by: cddbd v1.5.2PL0 Copyright (c) Steve Scherf et al.
# Submitted via: audiograbber 1.83.01
#
DISCID=410d6a06
DTITLE=Grateful Dead - 72-09-16A Boston Music Hall, Boston MA
DYEAR=1900
DGENRE=
TTITLE0=Playing In The Band
TTITLE1=Morning Dew
TTITLE2=Greatest Story Ever Told
TTITLE3=He's Gone
TTITLE4=El Paso
TTITLE5=Don't Ease Me In
EXTD=
EXTT0=
EXTT1=
EXTT2=
EXTT3=
EXTT4=
EXTT5=
PLAYORDER=
